<svg width="414" height="418" viewBox="0 0 414 418" fill="none" xmlns="http://www.w3.org/2000/svg" >
    <mask id="mask0_5_88" style="mask-type:luminance" maskUnits="userSpaceOnUse" x="0" y="0" width="414" height="418">
        <path d="M413.308 409.998L7.36991 417.084L0.220322 7.48417L406.158 0.398491L413.308 409.998Z" fill="white" />
    </mask>
    <g mask="url(#mask0_5_88)">
        <mask id="mask1_5_88" style="mask-type:luminance" maskUnits="userSpaceOnUse" x="4" y="6" width="403"
            height="397">
            <path
                d="M370.607 110.279L205.87 25.5455L77.6465 97.2579L78.095 123.288C78.2006 129.001 80.9922 134.315 85.7659 137.895L278.325 282.239C282.229 285.174 284.35 289.697 283.999 294.351C283.643 299.016 280.858 303.234 276.55 305.646L204.303 346.053L86.2861 285.355C78.9702 281.594 69.9648 281.751 62.7846 285.765L40.2126 298.392L204.95 383.114L333.173 311.401L332.718 285.376C332.619 279.674 329.821 274.344 325.053 270.764L132.494 126.42C128.59 123.502 126.469 118.962 126.82 114.308C127.17 109.644 129.955 105.426 134.269 103.013L206.517 62.6117L324.533 123.305C331.849 127.066 340.854 126.908 348.034 122.894L370.607 110.279ZM205.538 6.55874L406.007 109.661L357.135 136.987C344.544 144.021 328.758 144.297 315.93 137.706L206.848 81.6149L146.195 115.521L336.187 257.957C345.045 264.59 350.237 274.483 350.421 285.067L351.041 320.594L205.281 402.106L4.80661 299.01L53.6845 271.672C66.2748 264.638 82.0607 264.362 94.883 270.953L203.971 327.061L264.624 293.138L74.6318 150.707C65.7743 144.075 60.5828 134.193 60.3979 123.597L59.7718 88.0654L205.538 6.55874Z"
                fill="white" />
        </mask>
        <g mask="url(#mask1_5_88)">
            <mask id="mask2_5_88" style="mask-type:luminance" maskUnits="userSpaceOnUse" x="4" y="6" width="403"
                height="397">
                <path
                    d="M370.607 110.279L205.87 25.5455L77.6465 97.2579L78.095 123.288C78.2006 129.001 80.9922 134.315 85.7659 137.895L278.325 282.239C282.229 285.174 284.35 289.697 283.999 294.351C283.643 299.016 280.858 303.234 276.55 305.646L204.303 346.053L86.2861 285.355C78.9702 281.594 69.9648 281.751 62.7846 285.765L40.2126 298.392L204.95 383.114L333.173 311.401L332.718 285.376C332.619 279.674 329.821 274.344 325.053 270.764L132.494 126.42C128.59 123.502 126.469 118.962 126.82 114.308C127.17 109.644 129.955 105.426 134.269 103.013L206.517 62.6117L324.533 123.305C331.849 127.066 340.854 126.908 348.034 122.894L370.607 110.279ZM205.538 6.55874L406.007 109.661L357.135 136.987C344.544 144.021 328.758 144.297 315.93 137.706L206.848 81.6149L146.195 115.521L336.187 257.957C345.045 264.59 350.237 274.483 350.421 285.067L351.041 320.594L205.281 402.106L4.80661 299.01L53.6845 271.672C66.2748 264.638 82.0607 264.362 94.883 270.953L203.971 327.061L264.624 293.138L74.6318 150.707C65.7743 144.075 60.5828 134.193 60.3979 123.597L59.7718 88.0654L205.538 6.55874Z"
                    fill="white" />
            </mask>
            <g mask="url(#mask2_5_88)">
                <path d="M-204.75 166.557L166.117 585.829L615.564 242.108L244.702 -177.169L-204.75 166.557Z"
                    fill="url(#paint0_linear_5_88)" />
            </g>
        </g>
    </g>
    <defs>
        <linearGradient id="paint0_linear_5_88" x1="212.052" y1="585.027" x2="198.762" y2="-176.367"
            gradientUnits="userSpaceOnUse">
            <stop stop-color="#071279" />
            <stop offset="1" stop-color="#071279" />
        </linearGradient>
    </defs>
</svg>