<svg class="w-full h-full" viewBox="0 0 64 58" fill="" xmlns="http://www.w3.org/2000/svg">
    <mask id="mask0_8_118" style="mask-type:luminance" maskUnits="userSpaceOnUse" x="0" y="0" width="64" height="58">
        <path d="M43.1466 36.4731L20.9999 36.8597L20.7282 21.2945L42.8749 20.9079L43.1466 36.4731Z" stroke="currentColor"
            stroke-width="40" />
    </mask>
    <g mask="url(#mask0_8_118)">
        <mask id="mask1_8_118" style="mask-type:luminance" maskUnits="userSpaceOnUse" x="0" y="2" width="63"
            height="53">
            <mask id="path-2-inside-1_8_118" fill="currentColor">
                <path
                    d="M57.059 16.1503L31.8726 4.97133L12.2195 14.528L12.2789 17.9801C12.293 18.7378 12.7184 19.4415 13.4479 19.9146L42.8719 38.9895C43.4684 39.3774 43.7915 39.9764 43.7361 40.5938C43.6799 41.2126 43.252 41.773 42.5917 42.0945L31.5183 47.4793L13.4748 39.4713C12.3563 38.9751 10.9778 38.9991 9.87727 39.5341L6.4176 41.2167L31.6041 52.3942L51.2571 42.8376L51.1969 39.3862C51.1837 38.63 50.7573 37.924 50.0287 37.4509L20.6048 18.376C20.0082 17.9904 19.6851 17.3891 19.7405 16.7718C19.7958 16.153 20.2237 15.5926 20.8849 15.271L31.9584 9.88701L50.0018 17.8943C51.1203 18.3905 52.4988 18.3664 53.5993 17.8315L57.059 16.1503ZM31.8286 2.45333L62.478 16.0557L54.9873 19.6972C53.0576 20.6347 50.6411 20.6769 48.6798 19.8073L32.0024 12.4072L22.7058 16.9257L51.7377 35.7485C53.0911 36.625 53.8823 37.9351 53.9068 39.3389L53.989 44.0504L31.648 54.9129L0.997694 41.3113L8.48931 37.6683C10.4191 36.7308 12.8356 36.6887 14.7959 37.5582L31.4743 44.9605L40.7708 40.4398L11.739 21.6178C10.3855 20.7413 9.59435 19.4326 9.56982 18.0274L9.48666 13.3152L31.8286 2.45333Z" />
            </mask>
            <path
                d="M57.059 16.1503L74.5418 52.1274L151.958 14.5077L73.2863 -20.4103L57.059 16.1503ZM31.8726 4.97133L48.0999 -31.5892L31.1034 -39.1331L14.3803 -31.0012L31.8726 4.97133ZM12.2195 14.528L-5.27276 -21.4445L-28.2131 -10.2894L-27.7746 15.2156L12.2195 14.528ZM12.2789 17.9801L-27.7152 18.6677L-27.7147 18.6969L-27.7142 18.726L12.2789 17.9801ZM13.4479 19.9146L-8.31739 53.4746L-8.31098 53.4788L13.4479 19.9146ZM42.8719 38.9895L64.6747 5.45393L64.6527 5.43962L64.6307 5.42534L42.8719 38.9895ZM43.7361 40.5938L83.5719 44.2144L83.5741 44.1905L83.5762 44.1666L43.7361 40.5938ZM42.5917 42.0945L60.0842 78.0669L60.0941 78.0621L60.104 78.0573L42.5917 42.0945ZM31.5183 47.4793L15.2918 84.0402L32.2881 91.5835L49.0107 83.4517L31.5183 47.4793ZM13.4748 39.4713L29.7013 2.91031L29.695 2.90755L13.4748 39.4713ZM9.87727 39.5341L-7.6091 3.55869L-7.6179 3.56297L9.87727 39.5341ZM6.4176 41.2167L-11.0776 5.24564L-88.4505 42.8773L-9.80794 77.7781L6.4176 41.2167ZM31.6041 52.3942L15.3785 88.9556L32.3743 96.4981L49.0963 88.3667L31.6041 52.3942ZM51.2571 42.8376L68.7494 78.8101L91.6963 67.6517L91.251 42.1395L51.2571 42.8376ZM50.0287 37.4509L71.8135 3.9036L71.8006 3.89517L71.7876 3.88676L50.0287 37.4509ZM20.6048 18.376L42.3636 -15.1881L42.3428 -15.2016L42.3219 -15.2151L20.6048 18.376ZM19.7405 16.7718L59.5806 20.3446L59.5815 20.3346L19.7405 16.7718ZM20.8849 15.271L3.39437 -20.7023L3.39129 -20.7008L20.8849 15.271ZM31.9584 9.88701L48.1836 -26.6745L31.189 -34.2163L14.4679 -26.0864L31.9584 9.88701ZM50.0018 17.8943L33.7766 54.4558L33.7816 54.458L50.0018 17.8943ZM53.5993 17.8315L36.1165 -18.1456L36.113 -18.1439L53.5993 17.8315ZM31.8286 2.45333L48.0546 -34.1078L31.0605 -41.6499L14.3393 -33.5206L31.8286 2.45333ZM62.478 16.0557L79.9666 52.03L157.364 14.404L78.704 -20.5055L62.478 16.0557ZM54.9873 19.6972L72.4659 55.6764L72.4759 55.6715L54.9873 19.6972ZM48.6798 19.8073L32.4563 56.3696L32.4675 56.3746L48.6798 19.8073ZM32.0024 12.4072L48.2258 -24.1551L31.2349 -31.6943L14.5166 -23.5685L32.0024 12.4072ZM22.7058 16.9257L5.2201 -19.05L-58.5235 11.9322L0.945263 50.4887L22.7058 16.9257ZM51.7377 35.7485L29.9771 69.3115L29.986 69.3173L29.9948 69.323L51.7377 35.7485ZM53.989 44.0504L71.4798 80.0236L94.4283 68.8657L93.983 43.3523L53.989 44.0504ZM31.648 54.9129L15.4232 91.4746L32.4177 99.0162L49.1388 90.8862L31.648 54.9129ZM0.997694 41.3113L-16.495 5.33903L-93.8794 42.9697L-15.2272 77.873L0.997694 41.3113ZM8.48931 37.6683L-8.98926 1.68914L-8.99631 1.69257L-9.00336 1.69599L8.48931 37.6683ZM14.7959 37.5582L31.0226 0.997384L31.0147 0.99387L14.7959 37.5582ZM31.4743 44.9605L15.2476 81.5214L32.2441 89.0649L48.9669 80.9328L31.4743 44.9605ZM40.7708 40.4398L58.2634 76.4122L121.988 45.4241L62.5308 6.87642L40.7708 40.4398ZM11.739 21.6178L33.499 -11.9456L33.4904 -11.9512L33.4818 -11.9567L11.739 21.6178ZM9.56982 18.0274L49.5637 17.3293L49.5636 17.3216L9.56982 18.0274ZM9.48666 13.3152L-8.00261 -22.6588L-30.9575 -11.4989L-30.5071 14.021L9.48666 13.3152ZM73.2863 -20.4103L48.0999 -31.5892L15.6453 41.5319L40.8317 52.7108L73.2863 -20.4103ZM14.3803 -31.0012L-5.27276 -21.4445L29.7118 50.5005L49.3648 40.9438L14.3803 -31.0012ZM-27.7746 15.2156L-27.7152 18.6677L52.273 17.2925L52.2136 13.8404L-27.7746 15.2156ZM-27.7142 18.726C-27.4125 34.9016 -18.2807 47.013 -8.31739 53.4746L35.2131 -13.6454C43.7175 -8.12988 51.9985 2.57392 52.2719 17.2342L-27.7142 18.726ZM-8.31098 53.4788L21.113 72.5537L64.6307 5.42534L35.2067 -13.6495L-8.31098 53.4788ZM21.069 72.5251C11.5021 66.3053 2.40382 53.66 3.89599 37.021L83.5762 44.1666C85.1791 26.2929 75.4347 12.4495 64.6747 5.45393L21.069 72.5251ZM3.9003 36.9732C5.36351 20.8741 15.8742 10.6143 25.0794 6.13177L60.104 78.0573C70.6299 72.9316 81.9962 61.5511 83.5719 44.2144L3.9003 36.9732ZM25.0993 6.12211L14.0258 11.5068L49.0107 83.4517L60.0842 78.0669L25.0993 6.12211ZM47.7447 10.9183L29.7013 2.91031L-2.75158 76.0322L15.2918 84.0402L47.7447 10.9183ZM29.695 2.90755C17.803 -2.36793 4.09157 -2.1286 -7.6091 3.55869L27.3636 75.5094C17.864 80.1269 6.90963 80.3181 -2.74536 76.035L29.695 2.90755ZM-7.6179 3.56297L-11.0776 5.24564L23.9128 77.1878L27.3724 75.5051L-7.6179 3.56297ZM-9.80794 77.7781L15.3785 88.9556L47.8296 15.8329L22.6431 4.65538L-9.80794 77.7781ZM49.0963 88.3667L68.7494 78.8101L33.7648 6.86507L14.1118 16.4217L49.0963 88.3667ZM91.251 42.1395L91.1908 38.6881L11.2029 40.0843L11.2632 43.5357L91.251 42.1395ZM91.1908 38.6881C90.9079 22.4812 81.757 10.3606 71.8135 3.9036L28.244 70.9982C19.7576 65.4874 11.4594 54.7787 11.2029 40.0843L91.1908 38.6881ZM71.7876 3.88676L42.3636 -15.1881L-1.15409 51.9402L28.2699 71.0151L71.7876 3.88676ZM42.3219 -15.2151C52.0286 -8.9396 61.0676 3.76376 59.5806 20.3446L-20.0996 13.199C-21.6973 31.0145 -12.0121 44.9203 -1.11244 51.9672L42.3219 -15.2151ZM59.5815 20.3346C58.1367 36.4916 47.5816 46.7673 38.3785 51.2429L3.39129 -20.7008C-7.13427 -15.5821 -18.545 -4.18565 -20.1005 13.2089L59.5815 20.3346ZM38.3754 51.2444L49.4489 45.8604L14.4679 -26.0864L3.39437 -20.7023L38.3754 51.2444ZM15.7332 46.4485L33.7766 54.4558L66.227 -18.6672L48.1836 -26.6745L15.7332 46.4485ZM33.7816 54.458C45.6736 59.7335 59.385 59.4941 71.0857 53.8068L36.113 -18.1439C45.6126 -22.7613 56.567 -22.9525 66.222 -18.6694L33.7816 54.458ZM71.0821 53.8086L74.5418 52.1274L39.5762 -19.8268L36.1165 -18.1456L71.0821 53.8086ZM15.6026 39.0145L46.252 52.6168L78.704 -20.5055L48.0546 -34.1078L15.6026 39.0145ZM44.9894 -19.9186L37.4987 -16.277L72.4759 55.6715L79.9666 52.03L44.9894 -19.9186ZM37.5087 -16.2819C46.1748 -20.4919 56.0843 -20.6648 64.892 -16.7599L32.4675 56.3746C45.1978 62.0186 59.9403 61.7613 72.4659 55.6764L37.5087 -16.2819ZM64.9033 -16.7549L48.2258 -24.1551L15.7789 48.9695L32.4563 56.3696L64.9033 -16.7549ZM14.5166 -23.5685L5.2201 -19.05L40.1916 52.9014L49.4881 48.3829L14.5166 -23.5685ZM0.945263 50.4887L29.9771 69.3115L73.4982 2.18544L44.4664 -16.6373L0.945263 50.4887ZM29.9948 69.323C22.0931 64.2059 14.1581 54.0832 13.9129 40.037L93.9007 38.6408C93.6065 21.787 84.0892 9.0441 73.4805 2.17393L29.9948 69.323ZM13.9129 40.037L13.9951 44.7485L93.983 43.3523L93.9007 38.6408L13.9129 40.037ZM36.4983 8.07714L14.1572 18.9397L49.1388 90.8862L71.4798 80.0236L36.4983 8.07714ZM47.8729 18.3513L17.2226 4.74969L-15.2272 77.873L15.4232 91.4746L47.8729 18.3513ZM18.4904 77.2836L25.982 73.6406L-9.00336 1.69599L-16.495 5.33903L18.4904 77.2836ZM25.9679 73.6474C17.3043 77.8562 7.39198 78.0325 -1.42285 74.1226L31.0147 0.99387C18.2791 -4.65523 3.53383 -4.39454 -8.98926 1.68914L25.9679 73.6474ZM-1.43077 74.119L15.2476 81.5214L47.701 8.3997L31.0226 0.997385L-1.43077 74.119ZM48.9669 80.9328L58.2634 76.4122L23.2781 4.46752L13.9817 8.98822L48.9669 80.9328ZM62.5308 6.87642L33.499 -11.9456L-10.021 55.1812L19.0108 74.0033L62.5308 6.87642ZM33.4818 -11.9567C41.3766 -6.84408 49.3185 3.27732 49.5637 17.3293L-30.4241 18.7255C-30.1298 35.5879 -20.6056 48.3267 -10.0039 55.1923L33.4818 -11.9567ZM49.5636 17.3216L49.4804 12.6094L-30.5071 14.021L-30.424 18.7332L49.5636 17.3216ZM26.9759 49.2891L49.3179 38.4273L14.3393 -33.5206L-8.00261 -22.6588L26.9759 49.2891Z"
                fill="currentColor" mask="url(#path-2-inside-1_8_118)" />
        </mask>
        <g mask="url(#mask1_8_118)">
            <mask id="mask2_8_118" style="mask-type:luminance" maskUnits="userSpaceOnUse" x="0" y="2" width="63"
                height="53">
                <mask id="path-4-inside-2_8_118" fill="currentColor">
                    <path
                        d="M57.059 16.1503L31.8726 4.97133L12.2195 14.528L12.2789 17.9801C12.293 18.7378 12.7184 19.4415 13.4479 19.9146L42.8719 38.9895C43.4684 39.3774 43.7915 39.9764 43.7361 40.5938C43.6799 41.2126 43.252 41.773 42.5917 42.0945L31.5183 47.4793L13.4748 39.4713C12.3563 38.9751 10.9778 38.9991 9.87727 39.5341L6.4176 41.2167L31.6041 52.3942L51.2571 42.8376L51.1969 39.3862C51.1837 38.63 50.7573 37.924 50.0287 37.4509L20.6048 18.376C20.0082 17.9904 19.6851 17.3891 19.7405 16.7718C19.7958 16.153 20.2237 15.5926 20.8849 15.271L31.9584 9.88701L50.0018 17.8943C51.1203 18.3905 52.4988 18.3664 53.5993 17.8315L57.059 16.1503ZM31.8286 2.45333L62.478 16.0557L54.9873 19.6972C53.0576 20.6347 50.6411 20.6769 48.6798 19.8073L32.0024 12.4072L22.7058 16.9257L51.7377 35.7485C53.0911 36.625 53.8823 37.9351 53.9068 39.3389L53.989 44.0504L31.648 54.9129L0.997694 41.3113L8.48931 37.6683C10.4191 36.7308 12.8356 36.6887 14.7959 37.5582L31.4743 44.9605L40.7708 40.4398L11.739 21.6178C10.3855 20.7413 9.59435 19.4326 9.56982 18.0274L9.48666 13.3152L31.8286 2.45333Z" />
                </mask>
                <path
                    d="M57.059 16.1503L74.5418 52.1274L151.958 14.5077L73.2863 -20.4103L57.059 16.1503ZM31.8726 4.97133L48.0999 -31.5892L31.1034 -39.1331L14.3803 -31.0012L31.8726 4.97133ZM12.2195 14.528L-5.27276 -21.4445L-28.2131 -10.2894L-27.7746 15.2156L12.2195 14.528ZM12.2789 17.9801L-27.7152 18.6677L-27.7147 18.6969L-27.7142 18.726L12.2789 17.9801ZM13.4479 19.9146L-8.31739 53.4746L-8.31098 53.4788L13.4479 19.9146ZM42.8719 38.9895L64.6747 5.45393L64.6527 5.43962L64.6307 5.42534L42.8719 38.9895ZM43.7361 40.5938L83.5719 44.2144L83.5741 44.1905L83.5762 44.1666L43.7361 40.5938ZM42.5917 42.0945L60.0842 78.0669L60.0941 78.0621L60.104 78.0573L42.5917 42.0945ZM31.5183 47.4793L15.2918 84.0402L32.2881 91.5835L49.0107 83.4517L31.5183 47.4793ZM13.4748 39.4713L29.7013 2.91031L29.695 2.90755L13.4748 39.4713ZM9.87727 39.5341L-7.6091 3.55869L-7.6179 3.56297L9.87727 39.5341ZM6.4176 41.2167L-11.0776 5.24564L-88.4505 42.8773L-9.80794 77.7781L6.4176 41.2167ZM31.6041 52.3942L15.3785 88.9556L32.3743 96.4981L49.0963 88.3667L31.6041 52.3942ZM51.2571 42.8376L68.7494 78.8101L91.6963 67.6517L91.251 42.1395L51.2571 42.8376ZM50.0287 37.4509L71.8135 3.9036L71.8006 3.89517L71.7876 3.88676L50.0287 37.4509ZM20.6048 18.376L42.3636 -15.1881L42.3428 -15.2016L42.3219 -15.2151L20.6048 18.376ZM19.7405 16.7718L59.5806 20.3446L59.5815 20.3346L19.7405 16.7718ZM20.8849 15.271L3.39437 -20.7023L3.39129 -20.7008L20.8849 15.271ZM31.9584 9.88701L48.1836 -26.6745L31.189 -34.2163L14.4679 -26.0864L31.9584 9.88701ZM50.0018 17.8943L33.7766 54.4558L33.7816 54.458L50.0018 17.8943ZM53.5993 17.8315L36.1165 -18.1456L36.113 -18.1439L53.5993 17.8315ZM31.8286 2.45333L48.0546 -34.1078L31.0605 -41.6499L14.3393 -33.5206L31.8286 2.45333ZM62.478 16.0557L79.9666 52.03L157.364 14.404L78.704 -20.5055L62.478 16.0557ZM54.9873 19.6972L72.4659 55.6764L72.4759 55.6715L54.9873 19.6972ZM48.6798 19.8073L32.4563 56.3696L32.4675 56.3746L48.6798 19.8073ZM32.0024 12.4072L48.2258 -24.1551L31.2349 -31.6943L14.5166 -23.5685L32.0024 12.4072ZM22.7058 16.9257L5.2201 -19.05L-58.5235 11.9322L0.945263 50.4887L22.7058 16.9257ZM51.7377 35.7485L29.9771 69.3115L29.986 69.3173L29.9948 69.323L51.7377 35.7485ZM53.989 44.0504L71.4798 80.0236L94.4283 68.8657L93.983 43.3523L53.989 44.0504ZM31.648 54.9129L15.4232 91.4746L32.4177 99.0162L49.1388 90.8862L31.648 54.9129ZM0.997694 41.3113L-16.495 5.33903L-93.8794 42.9697L-15.2272 77.873L0.997694 41.3113ZM8.48931 37.6683L-8.98926 1.68914L-8.99631 1.69257L-9.00336 1.69599L8.48931 37.6683ZM14.7959 37.5582L31.0226 0.997384L31.0147 0.99387L14.7959 37.5582ZM31.4743 44.9605L15.2476 81.5214L32.2441 89.0649L48.9669 80.9328L31.4743 44.9605ZM40.7708 40.4398L58.2634 76.4122L121.988 45.4241L62.5308 6.87642L40.7708 40.4398ZM11.739 21.6178L33.499 -11.9456L33.4904 -11.9512L33.4818 -11.9567L11.739 21.6178ZM9.56982 18.0274L49.5637 17.3293L49.5636 17.3216L9.56982 18.0274ZM9.48666 13.3152L-8.00261 -22.6588L-30.9575 -11.4989L-30.5071 14.021L9.48666 13.3152ZM73.2863 -20.4103L48.0999 -31.5892L15.6453 41.5319L40.8317 52.7108L73.2863 -20.4103ZM14.3803 -31.0012L-5.27276 -21.4445L29.7118 50.5005L49.3648 40.9438L14.3803 -31.0012ZM-27.7746 15.2156L-27.7152 18.6677L52.273 17.2925L52.2136 13.8404L-27.7746 15.2156ZM-27.7142 18.726C-27.4125 34.9016 -18.2807 47.013 -8.31739 53.4746L35.2131 -13.6454C43.7175 -8.12988 51.9985 2.57392 52.2719 17.2342L-27.7142 18.726ZM-8.31098 53.4788L21.113 72.5537L64.6307 5.42534L35.2067 -13.6495L-8.31098 53.4788ZM21.069 72.5251C11.5021 66.3053 2.40382 53.66 3.89599 37.021L83.5762 44.1666C85.1791 26.2929 75.4347 12.4495 64.6747 5.45393L21.069 72.5251ZM3.9003 36.9732C5.36351 20.8741 15.8742 10.6143 25.0794 6.13177L60.104 78.0573C70.6299 72.9316 81.9962 61.5511 83.5719 44.2144L3.9003 36.9732ZM25.0993 6.12211L14.0258 11.5068L49.0107 83.4517L60.0842 78.0669L25.0993 6.12211ZM47.7447 10.9183L29.7013 2.91031L-2.75158 76.0322L15.2918 84.0402L47.7447 10.9183ZM29.695 2.90755C17.803 -2.36793 4.09157 -2.1286 -7.6091 3.55869L27.3636 75.5094C17.864 80.1269 6.90963 80.3181 -2.74536 76.035L29.695 2.90755ZM-7.6179 3.56297L-11.0776 5.24564L23.9128 77.1878L27.3724 75.5051L-7.6179 3.56297ZM-9.80794 77.7781L15.3785 88.9556L47.8296 15.8329L22.6431 4.65538L-9.80794 77.7781ZM49.0963 88.3667L68.7494 78.8101L33.7648 6.86507L14.1118 16.4217L49.0963 88.3667ZM91.251 42.1395L91.1908 38.6881L11.2029 40.0843L11.2632 43.5357L91.251 42.1395ZM91.1908 38.6881C90.9079 22.4812 81.757 10.3606 71.8135 3.9036L28.244 70.9982C19.7576 65.4874 11.4594 54.7787 11.2029 40.0843L91.1908 38.6881ZM71.7876 3.88676L42.3636 -15.1881L-1.15409 51.9402L28.2699 71.0151L71.7876 3.88676ZM42.3219 -15.2151C52.0286 -8.9396 61.0676 3.76376 59.5806 20.3446L-20.0996 13.199C-21.6973 31.0145 -12.0121 44.9203 -1.11244 51.9672L42.3219 -15.2151ZM59.5815 20.3346C58.1367 36.4916 47.5816 46.7673 38.3785 51.2429L3.39129 -20.7008C-7.13427 -15.5821 -18.545 -4.18565 -20.1005 13.2089L59.5815 20.3346ZM38.3754 51.2444L49.4489 45.8604L14.4679 -26.0864L3.39437 -20.7023L38.3754 51.2444ZM15.7332 46.4485L33.7766 54.4558L66.227 -18.6672L48.1836 -26.6745L15.7332 46.4485ZM33.7816 54.458C45.6736 59.7335 59.385 59.4941 71.0857 53.8068L36.113 -18.1439C45.6126 -22.7613 56.567 -22.9525 66.222 -18.6694L33.7816 54.458ZM71.0821 53.8086L74.5418 52.1274L39.5762 -19.8268L36.1165 -18.1456L71.0821 53.8086ZM15.6026 39.0145L46.252 52.6168L78.704 -20.5055L48.0546 -34.1078L15.6026 39.0145ZM44.9894 -19.9186L37.4987 -16.277L72.4759 55.6715L79.9666 52.03L44.9894 -19.9186ZM37.5087 -16.2819C46.1748 -20.4919 56.0843 -20.6648 64.892 -16.7599L32.4675 56.3746C45.1978 62.0186 59.9403 61.7613 72.4659 55.6764L37.5087 -16.2819ZM64.9033 -16.7549L48.2258 -24.1551L15.7789 48.9695L32.4563 56.3696L64.9033 -16.7549ZM14.5166 -23.5685L5.2201 -19.05L40.1916 52.9014L49.4881 48.3829L14.5166 -23.5685ZM0.945263 50.4887L29.9771 69.3115L73.4982 2.18544L44.4664 -16.6373L0.945263 50.4887ZM29.9948 69.323C22.0931 64.2059 14.1581 54.0832 13.9129 40.037L93.9007 38.6408C93.6065 21.787 84.0892 9.0441 73.4805 2.17393L29.9948 69.323ZM13.9129 40.037L13.9951 44.7485L93.983 43.3523L93.9007 38.6408L13.9129 40.037ZM36.4983 8.07714L14.1572 18.9397L49.1388 90.8862L71.4798 80.0236L36.4983 8.07714ZM47.8729 18.3513L17.2226 4.74969L-15.2272 77.873L15.4232 91.4746L47.8729 18.3513ZM18.4904 77.2836L25.982 73.6406L-9.00336 1.69599L-16.495 5.33903L18.4904 77.2836ZM25.9679 73.6474C17.3043 77.8562 7.39198 78.0325 -1.42285 74.1226L31.0147 0.99387C18.2791 -4.65523 3.53383 -4.39454 -8.98926 1.68914L25.9679 73.6474ZM-1.43077 74.119L15.2476 81.5214L47.701 8.3997L31.0226 0.997385L-1.43077 74.119ZM48.9669 80.9328L58.2634 76.4122L23.2781 4.46752L13.9817 8.98822L48.9669 80.9328ZM62.5308 6.87642L33.499 -11.9456L-10.021 55.1812L19.0108 74.0033L62.5308 6.87642ZM33.4818 -11.9567C41.3766 -6.84408 49.3185 3.27732 49.5637 17.3293L-30.4241 18.7255C-30.1298 35.5879 -20.6056 48.3267 -10.0039 55.1923L33.4818 -11.9567ZM49.5636 17.3216L49.4804 12.6094L-30.5071 14.021L-30.424 18.7332L49.5636 17.3216ZM26.9759 49.2891L49.3179 38.4273L14.3393 -33.5206L-8.00261 -22.6588L26.9759 49.2891Z"
                    fill="currentColor" mask="url(#path-4-inside-2_8_118)" />
            </mask>
            <g mask="url(#mask2_8_118)">
                <path d="M62.8663 30.5444L28.0181 53.6752L0.609727 26.8217L35.4584 3.69065L62.8663 30.5444Z"
                    stroke="currentColor" stroke-width="40" />
            </g>
        </g>
    </g>
</svg>