<svg  viewBox="0 0 435 438" fill="none" xmlns="http://www.w3.org/2000/svg" >
<mask id="mask0_5_88" style="mask-type:luminance" maskUnits="userSpaceOnUse" x="0" y="0" width="435" height="438">
<path d="M405.981 437.234L0.970403 408.913L29.547 0.248505L434.558 28.5696L405.981 437.234Z" fill="white"/>
</mask>
<g mask="url(#mask0_5_88)">
<mask id="mask1_5_88" style="mask-type:luminance" maskUnits="userSpaceOnUse" x="8" y="17" width="417" height="395">
<path d="M389.565 134.933L232.84 36.1646L98.8543 96.4287L97.0323 122.399C96.6396 128.1 98.9575 133.637 103.401 137.619L282.647 298.196C286.281 301.461 287.999 306.151 287.244 310.756C286.482 315.373 283.34 319.332 278.838 321.36L203.344 355.316L91.0672 284.563C84.107 280.178 75.1222 279.55 67.6195 282.923L44.0328 293.534L200.759 392.292L334.744 332.028L336.56 306.062C336.958 300.373 334.635 294.819 330.197 290.837L150.951 130.26C147.317 127.013 145.599 122.306 146.354 117.7C147.11 113.084 150.252 109.125 154.76 107.097L230.254 73.1462L342.531 143.894C349.491 148.278 358.476 148.907 365.979 145.534L389.565 134.933ZM234.164 17.2213L424.884 137.403L373.816 160.365C360.661 166.276 344.911 165.175 332.706 157.491L228.928 92.106L165.55 120.597L342.405 279.05C350.651 286.43 354.961 296.737 354.222 307.298L351.744 342.743L199.434 411.241L8.70772 291.064L59.7822 268.091C72.9377 262.181 88.6876 263.282 100.887 270.966L204.67 336.367L268.049 307.86L91.1926 149.412C82.9469 142.033 78.6364 131.736 79.3756 121.165L81.8487 85.7133L234.164 17.2213Z" fill="white"/>
</mask>
<g mask="url(#mask1_5_88)">
<mask id="mask2_5_88" style="mask-type:luminance" maskUnits="userSpaceOnUse" x="8" y="17" width="417" height="395">
<path d="M389.565 134.933L232.84 36.1646L98.8543 96.4287L97.0323 122.399C96.6396 128.1 98.9575 133.637 103.401 137.619L282.647 298.196C286.281 301.461 287.999 306.151 287.244 310.756C286.482 315.373 283.34 319.332 278.838 321.36L203.344 355.316L91.0672 284.563C84.107 280.178 75.1222 279.55 67.6195 282.923L44.0328 293.534L200.759 392.292L334.744 332.028L336.56 306.062C336.958 300.373 334.635 294.819 330.197 290.837L150.951 130.26C147.317 127.013 145.599 122.306 146.354 117.7C147.11 113.084 150.252 109.125 154.76 107.097L230.254 73.1462L342.531 143.894C349.491 148.278 358.476 148.907 365.979 145.534L389.565 134.933ZM234.164 17.2213L424.884 137.403L373.816 160.365C360.661 166.276 344.911 165.175 332.706 157.491L228.928 92.106L165.55 120.597L342.405 279.05C350.651 286.43 354.961 296.737 354.222 307.298L351.744 342.743L199.434 411.241L8.70772 291.064L59.7822 268.091C72.9377 262.181 88.6876 263.282 100.887 270.966L204.67 336.367L268.049 307.86L91.1926 149.412C82.9469 142.033 78.6364 131.736 79.3756 121.165L81.8487 85.7133L234.164 17.2213Z" fill="white"/>
</mask>
<g mask="url(#mask2_5_88)">
<path d="M-188.508 140.852L144.406 590.851L622.1 287.61L289.192 -162.394L-188.508 140.852Z" fill="url(#paint0_linear_5_88)"/>
</g>
</g>
</g>
<defs>
<linearGradient id="paint0_linear_5_88" x1="190.236" y1="594.056" x2="243.357" y2="-165.599" gradientUnits="userSpaceOnUse">
<stop stop-color="#1595B6"/>
<stop offset="1" stop-color="#1F2667"/>
</linearGradient>
</defs>
</svg>
